<svg xmlns="http://www.w3.org/2000/svg" xmlns:xlink="http://www.w3.org/1999/xlink" viewBox="0 0 406.43 406.43"><defs><style>.cls-1{fill:#a0693c;}.cls-2{fill:#37373a;}.cls-3{fill:#fff;}.cls-4{fill:#4a6691;opacity:0.25;}.cls-5{fill:url(#Degradado_sin_nombre_10);}.cls-6{fill:#e51c1c;}.cls-7{fill:#f4bc1c;}.cls-8{fill:#562d11;}.cls-10,.cls-11,.cls-12,.cls-13,.cls-9{fill:none;stroke-miterlimit:10;}.cls-11,.cls-9{stroke:#f4bc1c;}.cls-12,.cls-9{stroke-width:3px;}.cls-10{stroke:#cc882e;stroke-width:4px;}.cls-11{stroke-width:8px;}.cls-12,.cls-13{stroke:#ffe98d;}.cls-13{stroke-width:2px;}</style><linearGradient id="Degradado_sin_nombre_10" x1="206.05" y1="122.79" x2="206.05" y2="35.31" gradientUnits="userSpaceOnUse"><stop offset="0" stop-color="#aa0627"/><stop offset="0.15" stop-color="#b80b24"/><stop offset="0.47" stop-color="#d11420"/><stop offset="0.76" stop-color="#e01a1d"/><stop offset="1" stop-color="#e51c1c"/></linearGradient></defs><g id="Capa_2" data-name="Capa 2"><g id="Capa_1-2" data-name="Capa 1"><path class="cls-1" d="M389.26,121.59c45.08,102.74-1.67,222.59-104.42,267.67S62.25,387.59,17.17,284.84,18.84,62.25,121.59,17.17s222.59,1.67,267.67,104.42"/><path class="cls-2" d="M220.39,29.65,206,202.7,248.69,34.38a5.59,5.59,0,0,0-4.2-6.84,177.51,177.51,0,0,0-17.89-3A5.6,5.6,0,0,0,220.39,29.65Z"/><path class="cls-3" d="M227.14,62.16l3.55-3.37a2.58,2.58,0,0,0,.45-.55,1.59,1.59,0,0,0,.22-.56v0a.88.88,0,0,0-.15-.69,1.15,1.15,0,0,0-.69-.36,1.05,1.05,0,0,0-.79.16,1.33,1.33,0,0,0-.47.74h0l-1.42-.24h0a3.24,3.24,0,0,1,.62-1.23,2.27,2.27,0,0,1,1-.67,2.59,2.59,0,0,1,1.28-.08,2.87,2.87,0,0,1,1.26.48,1.84,1.84,0,0,1,.71.88,2.51,2.51,0,0,1,.09,1.24h0a2.81,2.81,0,0,1-.36,1,4,4,0,0,1-.7.89L229,62.36l3,.51-.22,1.32-4.86-.81Z"/><path class="cls-4" d="M291.73,169.08A93.6,93.6,0,1,1,168.41,121a93.59,93.59,0,0,1,123.32,48.11"/><path class="cls-5" d="M191.7,29.64,206,202.7l14.37-173a5.59,5.59,0,0,0-5.26-6,177.22,177.22,0,0,0-18.15,0A5.59,5.59,0,0,0,191.7,29.64Z"/><path class="cls-3" d="M205.54,61.83h-1.4V54.91l-1.12.57V54l1.24-.69h1.28Z"/><path class="cls-2" d="M163.41,34.36,206,202.7,191.71,29.64a5.58,5.58,0,0,0-6.19-5.1,174.75,174.75,0,0,0-17.89,3A5.59,5.59,0,0,0,163.41,34.36Z"/><path class="cls-3" d="M177.7,64a2.42,2.42,0,0,1-.92-1.65l-.64-3.82a2.44,2.44,0,0,1,.34-1.87,3,3,0,0,1,3.65-.61,2.39,2.39,0,0,1,.92,1.66l.64,3.82a2.38,2.38,0,0,1-.33,1.86,2.55,2.55,0,0,1-1.73.94A2.51,2.51,0,0,1,177.7,64Zm2.47-1.46a1.47,1.47,0,0,0,.11-1l-.57-3.42a1.52,1.52,0,0,0-.42-.9,1,1,0,0,0-.87-.19,1,1,0,0,0-.76.47,1.46,1.46,0,0,0-.1,1l.57,3.41a1.52,1.52,0,0,0,.41.9,1,1,0,0,0,.87.19A1,1,0,0,0,180.17,62.58Z"/><path class="cls-3" d="M184.23,63a2.42,2.42,0,0,1-.92-1.65l-.64-3.82a2.44,2.44,0,0,1,.34-1.87,3,3,0,0,1,3.65-.61,2.43,2.43,0,0,1,.93,1.66l.63,3.82a2.38,2.38,0,0,1-.33,1.86,2.55,2.55,0,0,1-1.73.94A2.51,2.51,0,0,1,184.23,63Zm2.48-1.46a1.54,1.54,0,0,0,.1-1l-.57-3.42a1.46,1.46,0,0,0-.42-.89A1,1,0,0,0,185,56a1,1,0,0,0-.76.47,1.46,1.46,0,0,0-.1,1l.57,3.42a1.52,1.52,0,0,0,.42.89,1,1,0,0,0,.86.19A1,1,0,0,0,186.71,61.49Z"/><path class="cls-6" d="M136.29,43.67,206,202.7,163.43,34.36a5.59,5.59,0,0,0-7-4,179.19,179.19,0,0,0-17.16,5.88A5.59,5.59,0,0,0,136.29,43.67Z"/><path class="cls-3" d="M158.32,69.42a2.44,2.44,0,0,1-1.18-1.48l-1.26-3.67a2.37,2.37,0,0,1,0-1.89,3,3,0,0,1,3.5-1.21,2.41,2.41,0,0,1,1.18,1.49l1.26,3.66a2.41,2.41,0,0,1,0,1.89,3,3,0,0,1-3.51,1.21Zm2.2-1.85a1.57,1.57,0,0,0-.06-1l-1.13-3.27a1.49,1.49,0,0,0-.55-.82,1,1,0,0,0-.89,0,1,1,0,0,0-.68.58,1.54,1.54,0,0,0,.06,1l1.13,3.28a1.45,1.45,0,0,0,.56.81,1,1,0,0,0,.89.05A1,1,0,0,0,160.52,67.57Z"/><path class="cls-2" d="M111.06,57.32,206,202.7l-69.72-159a5.59,5.59,0,0,0-7.51-2.81,177.63,177.63,0,0,0-16,8.63A5.6,5.6,0,0,0,111.06,57.32Z"/><path class="cls-3" d="M135,80.72a2.2,2.2,0,0,1-1.18-.26,2.61,2.61,0,0,1-1-.9l1.27-.68a1,1,0,0,0,.42.37.8.8,0,0,0,.48.09,1.24,1.24,0,0,0,.53-.16,1.11,1.11,0,0,0,.58-.64,1,1,0,0,0-.13-.84l-.11-.2a1.3,1.3,0,0,0-.64-.65.9.9,0,0,0-.79.08l-.58.31-.63-1.17.58-.32a.74.74,0,0,0,.42-.53,1.18,1.18,0,0,0-.16-.76l-.1-.18a.93.93,0,0,0-.54-.5.86.86,0,0,0-.7.11,1,1,0,0,0-.37.32,1.14,1.14,0,0,0-.15.46,1.58,1.58,0,0,0,.08.59l-1.26.68a3,3,0,0,1-.22-1.32,2.14,2.14,0,0,1,.37-1.12,2.56,2.56,0,0,1,.93-.82,2.44,2.44,0,0,1,1.79-.31,2.19,2.19,0,0,1,1.32,1.15l.09.17a1.82,1.82,0,0,1,.23,1.1,2,2,0,0,1-.48,1,1.58,1.58,0,0,1,1.21.1,2.26,2.26,0,0,1,.94,1l.1.17a2.73,2.73,0,0,1,.35,1.26,2,2,0,0,1-.37,1.11,2.88,2.88,0,0,1-1,.88A3.24,3.24,0,0,1,135,80.72Z"/><path class="cls-3" d="M140.56,77.68a2,2,0,0,1-1.15-.37,3.13,3.13,0,0,1-.91-1.09h0a4,4,0,0,1-.37-.92,6,6,0,0,1-.21-1.06c0-.07,0-.13,0-.19s0-.12,0-.18l-.17-4.08,1.36-.74.17,4.74-.28-.09a1,1,0,0,1,.18-.58,1.3,1.3,0,0,1,.5-.45,2.25,2.25,0,0,1,1.17-.29,2,2,0,0,1,1.07.41,3.37,3.37,0,0,1,.87,1.09h0a3.1,3.1,0,0,1,.41,1.38,1.94,1.94,0,0,1-.31,1.18,2.61,2.61,0,0,1-1,.89A2.54,2.54,0,0,1,140.56,77.68Zm1.19-2.17a1.19,1.19,0,0,0-.17-.88h0a1.5,1.5,0,0,0-.7-.71A1,1,0,0,0,140,74a.86.86,0,0,0-.49.65,1.54,1.54,0,0,0,.22,1h0a1.19,1.19,0,0,0,.64.62,1,1,0,0,0,.81-.1A1,1,0,0,0,141.75,75.51Z"/><path class="cls-6" d="M88.43,74.93,206,202.7l-95-145.39a5.58,5.58,0,0,0-7.87-1.54A176.56,176.56,0,0,0,88.88,66.91,5.59,5.59,0,0,0,88.43,74.93Z"/><path class="cls-3" d="M115.79,94.18a2.08,2.08,0,0,1-1.21-.06,2.63,2.63,0,0,1-1.08-.72l1.13-.88a1.29,1.29,0,0,0,.48.29.9.9,0,0,0,.49,0,1.46,1.46,0,0,0,.49-.26,1.06,1.06,0,0,0,.47-.72,1,1,0,0,0-.27-.81l-.14-.18a1.26,1.26,0,0,0-.73-.53.91.91,0,0,0-.77.2l-.52.41-.82-1.06.52-.4a.77.77,0,0,0,.33-.6,1.14,1.14,0,0,0-.28-.72l-.13-.16a.93.93,0,0,0-.61-.4.85.85,0,0,0-.68.22,1,1,0,0,0-.31.37,1.12,1.12,0,0,0-.07.49,1.62,1.62,0,0,0,.17.56l-1.12.88a3.14,3.14,0,0,1-.45-1.27,2.32,2.32,0,0,1,.19-1.17,2.6,2.6,0,0,1,.78-1,2.38,2.38,0,0,1,1.72-.6,2.12,2.12,0,0,1,1.48.91l.13.16a1.79,1.79,0,0,1,.09,2.14,1.56,1.56,0,0,1,1.21-.1,2.16,2.16,0,0,1,1.1.82l.12.15a2.56,2.56,0,0,1,.55,1.19,1.85,1.85,0,0,1-.17,1.15,3.36,3.36,0,0,1-2.09,1.63Z"/><path class="cls-3" d="M121,90.11a2.2,2.2,0,0,1-1.16-.11,3.18,3.18,0,0,1-1.1-.75h0l1.11-.86h0a1.15,1.15,0,0,0,.71.37,1,1,0,0,0,.73-.23,1,1,0,0,0,.4-.74,1.41,1.41,0,0,0-.36-.9l-.43-.56a1.43,1.43,0,0,0-.78-.57.85.85,0,0,0-.78.19,1.06,1.06,0,0,0-.36.5,1.19,1.19,0,0,0,0,.65l-1,.79-2.88-3.7,3.51-2.74.83,1.06L117,84.39,118,85.74a1.47,1.47,0,0,1,.21-.53,1.91,1.91,0,0,1,.41-.44,2.2,2.2,0,0,1,1.13-.49,1.9,1.9,0,0,1,1.15.23,3.38,3.38,0,0,1,1.07,1l.44.56a3.18,3.18,0,0,1,.64,1.29,2,2,0,0,1-.12,1.22,2.7,2.7,0,0,1-.85,1.06A2.54,2.54,0,0,1,121,90.11Z"/><path class="cls-2" d="M69,96,206,202.7,88.44,74.92a5.58,5.58,0,0,0-8-.22A177.66,177.66,0,0,0,68.13,88,5.58,5.58,0,0,0,69,96Z"/><path class="cls-3" d="M98.61,110.37a2.24,2.24,0,0,1-1.2.14,2.76,2.76,0,0,1-1.19-.54l1-1.06a1.11,1.11,0,0,0,.51.21.91.91,0,0,0,.49-.06,1.37,1.37,0,0,0,.45-.33,1.11,1.11,0,0,0,.34-.8,1.06,1.06,0,0,0-.4-.75l-.17-.16a1.3,1.3,0,0,0-.81-.4.93.93,0,0,0-.72.33l-.45.49-1-.91.45-.49a.77.77,0,0,0,.23-.64,1.21,1.21,0,0,0-.4-.66l-.16-.14a1,1,0,0,0-.67-.3.91.91,0,0,0-.63.33,1,1,0,0,0-.24.42.91.91,0,0,0,0,.49,1.45,1.45,0,0,0,.26.53l-1,1.05A3.15,3.15,0,0,1,92.7,106a2.29,2.29,0,0,1,0-1.19,2.7,2.7,0,0,1,.61-1.07,2.46,2.46,0,0,1,1.6-.87,2.16,2.16,0,0,1,1.62.65l.14.14a1.79,1.79,0,0,1,.45,2.09,1.69,1.69,0,0,1,1.18-.3,2.3,2.3,0,0,1,1.21.63l.15.14a2.63,2.63,0,0,1,.74,1.07,1.94,1.94,0,0,1,0,1.17,2.93,2.93,0,0,1-.71,1.17A3.1,3.1,0,0,1,98.61,110.37Z"/><path class="cls-3" d="M100.42,104.89l-2.52-6,1-1.12,2.52,6,2.71-3,1,.9-3.8,4.12Zm.61-4.28.94-1,3.69,3.4-.94,1Z"/><path class="cls-6" d="M53.31,120,206,202.7,69,96a5.6,5.6,0,0,0-8,1.1,177.83,177.83,0,0,0-9.92,15.19A5.59,5.59,0,0,0,53.31,120Z"/><path class="cls-3" d="M85.51,129.32a2.13,2.13,0,0,1-1.17.34,2.65,2.65,0,0,1-1.26-.34l.79-1.2a1.29,1.29,0,0,0,.54.13,1,1,0,0,0,.48-.15,1.33,1.33,0,0,0,.38-.4,1.13,1.13,0,0,0,.21-.84,1.09,1.09,0,0,0-.52-.68l-.19-.12a1.36,1.36,0,0,0-.87-.27.91.91,0,0,0-.65.45l-.36.55-1.12-.73.36-.55a.76.76,0,0,0,.12-.67,1.13,1.13,0,0,0-.51-.59l-.17-.12a1,1,0,0,0-.71-.18.94.94,0,0,0-.57.43,1,1,0,0,0-.17.46,1.07,1.07,0,0,0,.09.48,1.62,1.62,0,0,0,.35.48L79.78,127a3,3,0,0,1-.83-1,2.17,2.17,0,0,1-.2-1.17,2.56,2.56,0,0,1,.42-1.15,2.42,2.42,0,0,1,1.43-1.13,2.14,2.14,0,0,1,1.7.38l.17.11a1.76,1.76,0,0,1,.72.86,1.87,1.87,0,0,1,.07,1.13,1.62,1.62,0,0,1,1.11-.49,2.29,2.29,0,0,1,1.3.42l.17.11a2.79,2.79,0,0,1,.91.94,2,2,0,0,1,.2,1.15,2.83,2.83,0,0,1-.5,1.27A3,3,0,0,1,85.51,129.32Z"/><path class="cls-3" d="M89,124a2.21,2.21,0,0,1-1.16.34,2.6,2.6,0,0,1-1.26-.34l.78-1.2a1.29,1.29,0,0,0,.55.13,1,1,0,0,0,.47-.15,1.33,1.33,0,0,0,.38-.4,1.1,1.1,0,0,0,.21-.84,1.05,1.05,0,0,0-.52-.68l-.19-.12a1.3,1.3,0,0,0-.87-.27.88.88,0,0,0-.65.45l-.36.55-1.12-.73.36-.55a.76.76,0,0,0,.12-.67,1.18,1.18,0,0,0-.51-.6l-.17-.11a1,1,0,0,0-.71-.18.9.9,0,0,0-.57.43,1,1,0,0,0-.17.46,1.07,1.07,0,0,0,.09.48,1.62,1.62,0,0,0,.35.48l-.78,1.19a3,3,0,0,1-.83-1.05,2.31,2.31,0,0,1-.2-1.17,2.64,2.64,0,0,1,.42-1.16,2.4,2.4,0,0,1,1.43-1.12,2.11,2.11,0,0,1,1.7.38l.17.11a1.73,1.73,0,0,1,.72.85,1.91,1.91,0,0,1,.07,1.14,1.62,1.62,0,0,1,1.11-.49,2.27,2.27,0,0,1,1.3.42l.17.11a2.62,2.62,0,0,1,.91.94,1.89,1.89,0,0,1,.2,1.15,2.83,2.83,0,0,1-.5,1.27A3,3,0,0,1,89,124Z"/><path class="cls-2" d="M41.79,146.29,206,202.7,53.32,120a5.6,5.6,0,0,0-7.66,2.39A179.61,179.61,0,0,0,38.37,139,5.59,5.59,0,0,0,41.79,146.29Z"/><path class="cls-3" d="M75.05,150.09a2.17,2.17,0,0,1-1.09.52,2.69,2.69,0,0,1-1.3-.12l.58-1.32a1.09,1.09,0,0,0,.56,0,.88.88,0,0,0,.44-.22,1.2,1.2,0,0,0,.31-.46,1.1,1.1,0,0,0,.07-.86,1.08,1.08,0,0,0-.62-.58l-.21-.09a1.35,1.35,0,0,0-.9-.12.88.88,0,0,0-.58.54l-.26.61-1.22-.54.26-.6a.77.77,0,0,0,0-.68,1.18,1.18,0,0,0-.6-.5l-.19-.08a.91.91,0,0,0-.73-.07.9.9,0,0,0-.49.52,1,1,0,0,0-.09.48,1.08,1.08,0,0,0,.17.46,1.64,1.64,0,0,0,.42.41L69,148.73a3,3,0,0,1-1-.9,2.24,2.24,0,0,1-.4-1.12,2.63,2.63,0,0,1,.23-1.21,2.43,2.43,0,0,1,1.23-1.35,2.14,2.14,0,0,1,1.74.1l.18.08a1.86,1.86,0,0,1,.86.72,1.94,1.94,0,0,1,.25,1.11,1.59,1.59,0,0,1,1-.66,2.24,2.24,0,0,1,1.36.2l.18.08a2.68,2.68,0,0,1,1,.78,1.9,1.9,0,0,1,.39,1.09,3,3,0,0,1-.28,1.34A3.12,3.12,0,0,1,75.05,150.09Z"/><path class="cls-3" d="M76.19,144.86l-2.39-4.27a2.25,2.25,0,0,0-.43-.57,1.76,1.76,0,0,0-.49-.36h0a.85.85,0,0,0-.71,0,1,1,0,0,0-.51.59,1,1,0,0,0,0,.8,1.25,1.25,0,0,0,.6.63h0L71.63,143h0a3,3,0,0,1-1-.9,2.16,2.16,0,0,1-.41-1.13,2.59,2.59,0,0,1,.23-1.25,3,3,0,0,1,.78-1.11,1.81,1.81,0,0,1,1-.47,2.39,2.39,0,0,1,1.22.22h0a3.13,3.13,0,0,1,.88.6,3.84,3.84,0,0,1,.69.9l1.83,3.29,1.23-2.81,1.23.54-2,4.51Z"/><path class="cls-6" d="M34.74,174.09,206,202.7,41.79,146.28a5.59,5.59,0,0,0-7.16,3.62,179.54,179.54,0,0,0-4.45,17.59A5.59,5.59,0,0,0,34.74,174.09Z"/><path class="cls-3" d="M68.51,171.29a2.23,2.23,0,0,1-1,.7,2.67,2.67,0,0,1-1.3.09l.35-1.39a1.26,1.26,0,0,0,.56-.06.93.93,0,0,0,.39-.29,1.27,1.27,0,0,0,.24-.51,1.08,1.08,0,0,0-.08-.86,1,1,0,0,0-.71-.47l-.22-.06a1.29,1.29,0,0,0-.9,0,.89.89,0,0,0-.48.63l-.16.64-1.3-.33.16-.64a.77.77,0,0,0-.1-.67,1.14,1.14,0,0,0-.67-.4l-.2-.05a1,1,0,0,0-.73.06.87.87,0,0,0-.4.59.91.91,0,0,0,0,.49,1,1,0,0,0,.24.42,1.34,1.34,0,0,0,.48.34L62.33,171a3,3,0,0,1-1.12-.73,2.34,2.34,0,0,1-.58-1,2.57,2.57,0,0,1,0-1.23,2.38,2.38,0,0,1,1-1.53,2.14,2.14,0,0,1,1.73-.19l.2.05a1.88,1.88,0,0,1,1,.57,2,2,0,0,1,.43,1.06,1.6,1.6,0,0,1,.89-.83,2.34,2.34,0,0,1,1.37,0l.19.05a2.6,2.6,0,0,1,1.16.59,1.8,1.8,0,0,1,.57,1,2.9,2.9,0,0,1-.06,1.36A3,3,0,0,1,68.51,171.29Z"/><path class="cls-3" d="M70.54,164l-.35,1.36-6.71-1.7.27,1.23-1.42-.36L62,163.17l.32-1.24Z"/><path class="cls-2" d="M32.37,202.67l173.65,0L34.74,174.08a5.59,5.59,0,0,0-6.46,4.75,176.51,176.51,0,0,0-1.5,18.08A5.59,5.59,0,0,0,32.37,202.67Z"/><path class="cls-3" d="M65.13,195.68a2.24,2.24,0,0,1-.86.84,2.71,2.71,0,0,1-1.27.31l.12-1.43a1.43,1.43,0,0,0,.54-.15.9.9,0,0,0,.34-.36,1.1,1.1,0,0,0,.15-.53,1,1,0,0,0-1-1.19l-.23,0a1.36,1.36,0,0,0-.89.18.89.89,0,0,0-.36.71l-.06.66-1.33-.11.05-.66a.76.76,0,0,0-.21-.65,1.19,1.19,0,0,0-.73-.28l-.2,0a1,1,0,0,0-.71.18.87.87,0,0,0-.3.65.92.92,0,0,0,.38.86,1.54,1.54,0,0,0,.53.26L59,196.35a3.13,3.13,0,0,1-1.23-.53,2.33,2.33,0,0,1-.73-.93,2.73,2.73,0,0,1-.18-1.22,2.43,2.43,0,0,1,.72-1.67,2.12,2.12,0,0,1,1.68-.48l.2,0a1.76,1.76,0,0,1,1,.41,1.83,1.83,0,0,1,.6,1,1.58,1.58,0,0,1,.75-1,2.2,2.2,0,0,1,1.34-.25h.2a2.76,2.76,0,0,1,1.25.4,1.94,1.94,0,0,1,.73.91,3,3,0,0,1,.16,1.35A3.09,3.09,0,0,1,65.13,195.68Z"/><path class="cls-3" d="M65.26,189.66a2.46,2.46,0,0,1-1.83.48l-3.86-.32a2.39,2.39,0,0,1-1.72-.78,2.49,2.49,0,0,1-.48-1.9,2.53,2.53,0,0,1,.78-1.8,2.43,2.43,0,0,1,1.84-.48l3.85.32a2.39,2.39,0,0,1,1.73.78,2.5,2.5,0,0,1,.48,1.9A2.53,2.53,0,0,1,65.26,189.66Zm-.81-2.76a1.47,1.47,0,0,0-.93-.34l-3.45-.29a1.58,1.58,0,0,0-1,.18,1,1,0,0,0-.39.8,1,1,0,0,0,.26.85,1.41,1.41,0,0,0,.92.34l3.45.29a1.6,1.6,0,0,0,1-.18,1,1,0,0,0,.39-.8A1,1,0,0,0,64.45,186.9Z"/><path class="cls-6" d="M34.73,231.26,206,202.7l-173.65,0a5.58,5.58,0,0,0-5.59,5.75,176.45,176.45,0,0,0,1.49,18.08A5.6,5.6,0,0,0,34.73,231.26Z"/><path class="cls-3" d="M64.81,219.9l-4.13-2.62A2.24,2.24,0,0,0,60,217a1.66,1.66,0,0,0-.6-.08h0a.85.85,0,0,0-.64.32,1.06,1.06,0,0,0-.17.76,1,1,0,0,0,.34.72,1.33,1.33,0,0,0,.83.27h0l.12,1.44h0a3.26,3.26,0,0,1-1.34-.3,2.25,2.25,0,0,1-.9-.8,2.62,2.62,0,0,1-.39-1.21,3.19,3.19,0,0,1,.15-1.35,1.83,1.83,0,0,1,.69-.9,2.32,2.32,0,0,1,1.17-.39h0a2.94,2.94,0,0,1,1.05.11,3.71,3.71,0,0,1,1,.46l3.18,2L64.3,215l1.34-.11.41,4.9Z"/><path class="cls-3" d="M61.07,210.92l.2-.16a.9.9,0,0,1,.43.41,1.75,1.75,0,0,1,.18.68,2,2,0,0,1-.22,1.13,2.1,2.1,0,0,1-.81.81,3.15,3.15,0,0,1-1.28.37h0a3.22,3.22,0,0,1-1.43-.17,2,2,0,0,1-1-.76,3,3,0,0,1-.21-2.62,2.06,2.06,0,0,1,.83-.9,3.25,3.25,0,0,1,1.4-.41h0a4.52,4.52,0,0,1,1,0,6.39,6.39,0,0,1,1.07.26l.17.05.16.06,3.78,1.36.12,1.49Zm-.89,0a1.39,1.39,0,0,0-1-.2h0a1.34,1.34,0,0,0-.87.35.93.93,0,0,0-.25.78,1,1,0,0,0,.38.74,1.29,1.29,0,0,0,.91.19h0a1.32,1.32,0,0,0,.89-.34.94.94,0,0,0,.26-.79A.9.9,0,0,0,60.18,210.9Z"/><path class="cls-2" d="M41.77,259.06,206,202.7,34.73,231.24a5.59,5.59,0,0,0-4.57,6.6,177.46,177.46,0,0,0,4.45,17.58A5.6,5.6,0,0,0,41.77,259.06Z"/><path class="cls-3" d="M69.63,243.15l-4.51-1.9a2.58,2.58,0,0,0-.68-.19,1.74,1.74,0,0,0-.61,0h0a.83.83,0,0,0-.58.41,1.07,1.07,0,0,0-.05.78,1,1,0,0,0,.46.65,1.34,1.34,0,0,0,.87.14h0l.36,1.39h0a3.08,3.08,0,0,1-1.37-.07,2.17,2.17,0,0,1-1-.64,2.59,2.59,0,0,1-.58-1.13,3,3,0,0,1-.08-1.35,1.94,1.94,0,0,1,.53-1,2.42,2.42,0,0,1,1.09-.57h0a2.87,2.87,0,0,1,1.06-.07,3.87,3.87,0,0,1,1.1.28l3.47,1.48-.76-3,1.3-.32,1.21,4.77Z"/><path class="cls-3" d="M68.79,235.63a2.16,2.16,0,0,1-.57,1.1,2.41,2.41,0,0,1-1.13.63l-.13,0a2.22,2.22,0,0,1-1.25,0,2.3,2.3,0,0,1-1-.66,1.9,1.9,0,0,1-.5.92,1.87,1.87,0,0,1-.87.52l-.21.05a2.16,2.16,0,0,1-1.21,0,2,2,0,0,1-1-.65,2.74,2.74,0,0,1-.59-1.18,2.88,2.88,0,0,1-.05-1.33,2.11,2.11,0,0,1,.55-1,2.24,2.24,0,0,1,1.06-.58l.21,0a1.73,1.73,0,0,1,1,0A2.06,2.06,0,0,1,64,234a2.31,2.31,0,0,1,.6-1.09,2.27,2.27,0,0,1,1.08-.62l.13,0a2.35,2.35,0,0,1,1.29,0,2.1,2.1,0,0,1,1,.69,3.1,3.1,0,0,1,.63,1.27A3,3,0,0,1,68.79,235.63ZM63.52,235a.83.83,0,0,0-.47-.27,1.36,1.36,0,0,0-.6,0l-.08,0a1,1,0,0,0-.5.26.94.94,0,0,0-.27.45,1.15,1.15,0,0,0,0,.58,1.13,1.13,0,0,0,.26.51.94.94,0,0,0,.45.27,1.11,1.11,0,0,0,.57,0l.08,0a1.11,1.11,0,0,0,.53-.27.91.91,0,0,0,.29-.46,1.14,1.14,0,0,0,0-.58A1.07,1.07,0,0,0,63.52,235Zm3.61-1a1.08,1.08,0,0,0-.51-.33,1.38,1.38,0,0,0-.64,0l-.08,0a1.19,1.19,0,0,0-.54.3,1.1,1.1,0,0,0-.28.52,1.59,1.59,0,0,0,.32,1.28,1.16,1.16,0,0,0,.5.32,1.09,1.09,0,0,0,.62,0l.09,0a1.22,1.22,0,0,0,.55-.3,1,1,0,0,0,.29-.53,1.39,1.39,0,0,0,0-.67A1.44,1.44,0,0,0,67.13,234Z"/><path class="cls-6" d="M53.29,285.32,206,202.7,41.76,259.05a5.58,5.58,0,0,0-3.42,7.25,177.19,177.19,0,0,0,7.29,16.62A5.59,5.59,0,0,0,53.29,285.32Z"/><path class="cls-3" d="M78.07,264.75l-4.76-1.13a3,3,0,0,0-.71-.08,1.56,1.56,0,0,0-.6.13h0a.84.84,0,0,0-.5.51,1.13,1.13,0,0,0,.08.77,1,1,0,0,0,.56.57,1.33,1.33,0,0,0,.88,0h0l.58,1.32h0a3,3,0,0,1-1.37.15,2.2,2.2,0,0,1-1.11-.46,2.58,2.58,0,0,1-.76-1,3,3,0,0,1-.29-1.32,1.91,1.91,0,0,1,.35-1.08,2.41,2.41,0,0,1,1-.75h0a2.93,2.93,0,0,1,1-.24,4,4,0,0,1,1.13.1l3.66.89L76,260.29l1.23-.54,2,4.5Z"/><path class="cls-3" d="M68,257.31l7.65-1.11.61,1.38-7.39,1,.73,1.66,1.15-.5.56,1.28-2.38,1L67,257.74Z"/><path class="cls-2" d="M69,309.34,206,202.7,53.28,285.31A5.59,5.59,0,0,0,51.1,293,175.59,175.59,0,0,0,61,308.22,5.6,5.6,0,0,0,69,309.34Z"/><path class="cls-3" d="M89.9,284.83,85,284.49a2.75,2.75,0,0,0-.71,0,1.66,1.66,0,0,0-.57.22h0a.86.86,0,0,0-.41.58,1,1,0,0,0,.21.75,1,1,0,0,0,.64.47,1.41,1.41,0,0,0,.87-.15h0l.79,1.21h0a3.17,3.17,0,0,1-1.33.38,2.35,2.35,0,0,1-1.17-.27,2.69,2.69,0,0,1-.92-.89,3.18,3.18,0,0,1-.51-1.25,1.92,1.92,0,0,1,.18-1.12,2.24,2.24,0,0,1,.84-.9h0a3.16,3.16,0,0,1,1-.4,3.58,3.58,0,0,1,1.13-.09l3.76.27-1.68-2.57,1.13-.73,2.69,4.12Z"/><path class="cls-3" d="M87,278.47a2.07,2.07,0,0,1-.29,1.18,3.07,3.07,0,0,1-1,1h0a4.93,4.93,0,0,1-.89.45,6.92,6.92,0,0,1-1,.29l-.19,0-.18,0-4,.5-.85-1.29,4.71-.56-.06.28a1,1,0,0,1-.6-.12,1.34,1.34,0,0,1-.48-.47,2.17,2.17,0,0,1-.39-1.14,1.92,1.92,0,0,1,.32-1.09,3.49,3.49,0,0,1,1-1h0a3.12,3.12,0,0,1,1.33-.53,2.1,2.1,0,0,1,1.21.21,2.71,2.71,0,0,1,1,.94A2.65,2.65,0,0,1,87,278.47Zm-2.27-1a1.21,1.21,0,0,0-.86.25h0a1.55,1.55,0,0,0-.65.75,1,1,0,0,0,.15.85.92.92,0,0,0,.69.44,1.61,1.61,0,0,0,1-.31h0a1.28,1.28,0,0,0,.57-.7,1,1,0,0,0-.17-.8A1,1,0,0,0,84.71,277.46Z"/><path class="cls-6" d="M88.39,330.44,206,202.7,69,309.33a5.58,5.58,0,0,0-.88,8,178.71,178.71,0,0,0,12.28,13.35A5.6,5.6,0,0,0,88.39,330.44Z"/><path class="cls-3" d="M105.28,303.05l-4.87.47a2.49,2.49,0,0,0-.69.16,1.53,1.53,0,0,0-.52.31h0a.81.81,0,0,0-.31.64,1,1,0,0,0,.33.7,1,1,0,0,0,.71.36,1.37,1.37,0,0,0,.83-.29h0l1,1.06h0a3.16,3.16,0,0,1-1.24.58,2.21,2.21,0,0,1-1.2-.07,2.58,2.58,0,0,1-1-.72,3.09,3.09,0,0,1-.71-1.16,1.82,1.82,0,0,1,0-1.13,2.27,2.27,0,0,1,.68-1h0a2.92,2.92,0,0,1,.9-.56,3.79,3.79,0,0,1,1.1-.28l3.75-.35-2.08-2.26,1-.9,3.34,3.62Z"/><path class="cls-3" d="M100.92,296.76a2.12,2.12,0,0,1,0,1.17,3.22,3.22,0,0,1-.66,1.15h0l-1-1h0a1.16,1.16,0,0,0,.32-.74,1,1,0,0,0-.3-.7.94.94,0,0,0-.76-.35,1.43,1.43,0,0,0-.87.43l-.53.49a1.45,1.45,0,0,0-.5.81.89.89,0,0,0,.25.77,1.09,1.09,0,0,0,.53.32,1.2,1.2,0,0,0,.65,0L99,300l-3.46,3.18-3-3.28,1-.91,2.07,2.25,1.26-1.16a1.26,1.26,0,0,1-.54-.17,1.92,1.92,0,0,1-.48-.37,2.2,2.2,0,0,1-.58-1.09,1.9,1.9,0,0,1,.14-1.16,3.63,3.63,0,0,1,.86-1.15l.53-.48a3.16,3.16,0,0,1,1.23-.74,2.06,2.06,0,0,1,1.23,0,2.69,2.69,0,0,1,1.13.77A2.55,2.55,0,0,1,100.92,296.76Z"/><path class="cls-2" d="M111,348.06,206,202.7,88.38,330.43a5.59,5.59,0,0,0,.44,8,175.91,175.91,0,0,0,14.32,11.15A5.6,5.6,0,0,0,111,348.06Z"/><path class="cls-3" d="M122.17,319.26l-4.72,1.27a2.41,2.41,0,0,0-.66.27,1.38,1.38,0,0,0-.46.39h0a.82.82,0,0,0-.2.68,1.09,1.09,0,0,0,.44.64,1,1,0,0,0,.76.23,1.3,1.3,0,0,0,.77-.42h0l1.14.89h0a3.06,3.06,0,0,1-1.14.79,2.21,2.21,0,0,1-1.19.12,2.7,2.7,0,0,1-1.16-.53,3.13,3.13,0,0,1-.89-1,1.81,1.81,0,0,1-.19-1.11,2.41,2.41,0,0,1,.5-1.13h0a3.06,3.06,0,0,1,.8-.71,3.79,3.79,0,0,1,1-.45l3.65-1-2.42-1.89.82-1.06,3.89,3Z"/><path class="cls-3" d="M116.74,316.7l-5.82,3-1.2-.93,5.72-3-3.16-2.46.81-1.05,4.42,3.44Zm-4.31-.25-1.09-.85,3.08-4,1.09.85Z"/><path class="cls-6" d="M136.24,361.71,206,202.7,111,348.05a5.58,5.58,0,0,0,1.75,7.83,177.78,177.78,0,0,0,16,8.64A5.61,5.61,0,0,0,136.24,361.71Z"/><path class="cls-3" d="M142.36,331.24l-4.45,2a2.83,2.83,0,0,0-.61.37,1.68,1.68,0,0,0-.39.47h0a.84.84,0,0,0-.08.7,1,1,0,0,0,.54.56,1,1,0,0,0,.79.11,1.3,1.3,0,0,0,.68-.55h0l1.26.68h0a3.3,3.3,0,0,1-1,1,2.33,2.33,0,0,1-1.16.32,2.72,2.72,0,0,1-1.23-.34,3.09,3.09,0,0,1-1-.87,1.9,1.9,0,0,1-.38-1.06,2.4,2.4,0,0,1,.32-1.2h0a3.26,3.26,0,0,1,.67-.83,4,4,0,0,1,1-.61l3.44-1.55L138,329l.64-1.18,4.33,2.35Z"/><path class="cls-3" d="M136.44,326.83a2.16,2.16,0,0,1,.43,1.13,2.59,2.59,0,0,1-.23,1.28l-1.26-.68a1.23,1.23,0,0,0,.08-.55.89.89,0,0,0-.19-.46,1.18,1.18,0,0,0-.43-.35,1.11,1.11,0,0,0-.85-.14,1.08,1.08,0,0,0-.63.57l-.11.2a1.34,1.34,0,0,0-.19.89.88.88,0,0,0,.49.62l.58.31-.63,1.18-.58-.32a.76.76,0,0,0-.68-.06,1.17,1.17,0,0,0-.55.55l-.1.18a1,1,0,0,0-.12.73.9.9,0,0,0,.48.53,1,1,0,0,0,.46.13,1.08,1.08,0,0,0,.48-.13,2,2,0,0,0,.45-.39l1.25.68a3,3,0,0,1-1,.92,2.26,2.26,0,0,1-1.15.29,2.46,2.46,0,0,1-1.18-.32,2.38,2.38,0,0,1-1.24-1.34,2.14,2.14,0,0,1,.23-1.73l.1-.17a1.88,1.88,0,0,1,.79-.79,1.86,1.86,0,0,1,1.13-.16,1.62,1.62,0,0,1-.58-1.07A2.27,2.27,0,0,1,132,327l.1-.17a2.56,2.56,0,0,1,.86-1,2,2,0,0,1,1.12-.3,3,3,0,0,1,1.31.4A2.94,2.94,0,0,1,136.44,326.83Z"/><path class="cls-2" d="M163.36,371,206,202.7l-69.79,159a5.59,5.59,0,0,0,3,7.43A178.62,178.62,0,0,0,156.4,375,5.6,5.6,0,0,0,163.36,371Z"/><path class="cls-3" d="M164.09,339.84,160,342.58a2.47,2.47,0,0,0-.54.47,1.67,1.67,0,0,0-.31.52h0a.86.86,0,0,0,0,.71,1.21,1.21,0,0,0,1.42.44,1.35,1.35,0,0,0,.59-.65h0l1.36.47h0a3.2,3.2,0,0,1-.81,1.11,2.33,2.33,0,0,1-1.09.51,2.69,2.69,0,0,1-1.27-.13,3.14,3.14,0,0,1-1.17-.68,1.89,1.89,0,0,1-.55-1,2.31,2.31,0,0,1,.11-1.23h0a2.83,2.83,0,0,1,.52-.92,3.85,3.85,0,0,1,.84-.77l3.13-2.09-2.9-1,.43-1.27,4.66,1.6Z"/><path class="cls-3" d="M158.22,337.83l-4.05,2.73a2.76,2.76,0,0,0-.54.47,1.7,1.7,0,0,0-.31.52v0a.8.8,0,0,0,0,.71,1.1,1.1,0,0,0,.62.46,1,1,0,0,0,.8,0,1.31,1.31,0,0,0,.59-.65h0l1.36.47h0a3.2,3.2,0,0,1-.81,1.11,2.21,2.21,0,0,1-1.1.5,2.53,2.53,0,0,1-1.26-.13,3.06,3.06,0,0,1-1.18-.68,1.8,1.8,0,0,1-.54-1,2.31,2.31,0,0,1,.11-1.23h0a2.9,2.9,0,0,1,.53-.93,4,4,0,0,1,.83-.76l3.14-2.1-2.9-1,.43-1.27,4.66,1.6Z"/><path class="cls-6" d="M191.65,375.75,206,202.7,163.35,371a5.58,5.58,0,0,0,4.2,6.83,177.51,177.51,0,0,0,17.89,3A5.6,5.6,0,0,0,191.65,375.75Z"/><path class="cls-3" d="M186,344.47l-3.55,3.36a2.86,2.86,0,0,0-.45.55,1.63,1.63,0,0,0-.22.57h0a.84.84,0,0,0,.15.7,1,1,0,0,0,.69.35,1,1,0,0,0,.78-.16,1.24,1.24,0,0,0,.47-.74h0l1.43.24h0a3,3,0,0,1-.62,1.23,2.18,2.18,0,0,1-1,.68,2.56,2.56,0,0,1-1.27.07,3,3,0,0,1-1.27-.47,1.84,1.84,0,0,1-.7-.89,2.27,2.27,0,0,1-.09-1.23h0a3.26,3.26,0,0,1,.36-1,4.22,4.22,0,0,1,.7-.89l2.75-2.58-3-.51.22-1.32,4.86.81Z"/><path class="cls-3" d="M177.78,341.84l1.38.23L178,348.9l1.21-.37L179,350l-1.34.48-1.26-.22Z"/><path class="cls-2" d="M220.33,375.76,206,202.7,191.64,375.75a5.59,5.59,0,0,0,5.26,6.05,177.22,177.22,0,0,0,18.15,0A5.58,5.58,0,0,0,220.33,375.76Z"/><path class="cls-3" d="M211.7,344.79l-2.95,3.9a2.52,2.52,0,0,0-.35.61,1.59,1.59,0,0,0-.13.6h0a.84.84,0,0,0,.26.66,1,1,0,0,0,.74.24,1,1,0,0,0,.75-.29,1.29,1.29,0,0,0,.34-.8h1.44a3.06,3.06,0,0,1-.41,1.31,2.24,2.24,0,0,1-.87.83,2.61,2.61,0,0,1-1.24.29,3.15,3.15,0,0,1-1.33-.26,1.94,1.94,0,0,1-.84-.76,2.37,2.37,0,0,1-.29-1.2h0a3,3,0,0,1,.2-1,3.87,3.87,0,0,1,.54-1l2.29-3h-3.07v-1.34h4.92Z"/><path class="cls-3" d="M204.74,344.09a2.43,2.43,0,0,1,.63,1.78v3.88a2.38,2.38,0,0,1-.64,1.78,3,3,0,0,1-3.71,0,2.4,2.4,0,0,1-.63-1.78v-3.88a2.38,2.38,0,0,1,.64-1.78,2.48,2.48,0,0,1,1.85-.64A2.56,2.56,0,0,1,204.74,344.09Zm-2.69,1a1.51,1.51,0,0,0-.26.95v3.46a1.53,1.53,0,0,0,.26.95,1,1,0,0,0,.83.33,1,1,0,0,0,.83-.33,1.53,1.53,0,0,0,.26-.95v-3.46a1.51,1.51,0,0,0-.26-.95,1,1,0,0,0-.83-.34A1,1,0,0,0,202.05,345.13Z"/><path class="cls-6" d="M248.62,371,206,202.7l14.3,173.06a5.58,5.58,0,0,0,6.19,5.1,177.49,177.49,0,0,0,17.89-3A5.61,5.61,0,0,0,248.62,371Z"/><path class="cls-3" d="M231.19,341.33l1.38-.23,1.14,6.83,1-.75.24,1.45-1.11.89-1.27.21Z"/><path class="cls-3" d="M227.2,346.28l-.17-.18a.9.9,0,0,1,.37-.47,2,2,0,0,1,.67-.24,2,2,0,0,1,2,.87,3,3,0,0,1,.48,1.25h0a3.21,3.21,0,0,1-.05,1.43,2,2,0,0,1-.68,1,2.74,2.74,0,0,1-1.25.52,2.69,2.69,0,0,1-1.34-.09,2,2,0,0,1-1-.76,3.11,3.11,0,0,1-.52-1.35h0a4.25,4.25,0,0,1,0-1,7.64,7.64,0,0,1,.17-1.09l0-.17c0-.05,0-.11.05-.16l1-3.88,1.47-.24Zm.06.89a1.46,1.46,0,0,0-.12,1h0a1.4,1.4,0,0,0,.42.84,1.08,1.08,0,0,0,1.5-.26,1.24,1.24,0,0,0,.12-.92h0a1.37,1.37,0,0,0-.41-.86,1.05,1.05,0,0,0-1.51.25Z"/><path class="cls-2" d="M275.74,361.73,206,202.7,248.6,371.05a5.6,5.6,0,0,0,7,4,176.55,176.55,0,0,0,17.16-5.89A5.59,5.59,0,0,0,275.74,361.73Z"/><path class="cls-3" d="M254,335.16l1.33-.46,2.24,6.55.88-.9.48,1.39-.95,1.06-1.21.41Z"/><path class="cls-3" d="M251.2,336.32a2.09,2.09,0,0,1,1.14.48,2.42,2.42,0,0,1,.72,1.07l0,.14a2.27,2.27,0,0,1,.07,1.24,2.17,2.17,0,0,1-.57,1.09,2,2,0,0,1,1,.43,1.8,1.8,0,0,1,.59.83l.07.2a2.3,2.3,0,0,1,.09,1.21,2.12,2.12,0,0,1-.57,1,2.84,2.84,0,0,1-1.13.69,2.93,2.93,0,0,1-1.32.15,2.07,2.07,0,0,1-1.07-.46,2.19,2.19,0,0,1-.67-1l-.07-.2a1.8,1.8,0,0,1,0-1,2,2,0,0,1,.51-.92,2.2,2.2,0,0,1-1.13-.51,2.28,2.28,0,0,1-.72-1l0-.13a2.31,2.31,0,0,1-.1-1.29,2.18,2.18,0,0,1,.61-1.08,3,3,0,0,1,1.22-.73A3.08,3.08,0,0,1,251.2,336.32Zm-1.55,1.8a1.09,1.09,0,0,0-.28.53,1.18,1.18,0,0,0,.06.64l0,.07a1.21,1.21,0,0,0,.34.52,1.19,1.19,0,0,0,.55.24A1.54,1.54,0,0,0,251,340a1.45,1.45,0,0,0,.58-.35,1.09,1.09,0,0,0,.28-.53,1.08,1.08,0,0,0-.05-.61l0-.09a1.28,1.28,0,0,0-.34-.53,1.1,1.1,0,0,0-.55-.24,1.4,1.4,0,0,0-.66.08A1.35,1.35,0,0,0,249.65,338.12Zm1.31,3.5a.92.92,0,0,0-.23.5,1.16,1.16,0,0,0,.07.6l0,.07a1.08,1.08,0,0,0,.31.48.84.84,0,0,0,.47.23,1.14,1.14,0,0,0,.57-.06,1.27,1.27,0,0,0,.49-.3.87.87,0,0,0,.23-.47,1,1,0,0,0,0-.57l0-.09a1.33,1.33,0,0,0-.31-.5.93.93,0,0,0-.48-.25,1.16,1.16,0,0,0-.58.05A1.08,1.08,0,0,0,251,341.62Z"/><path class="cls-6" d="M301,348.09,206,202.7l69.71,159a5.59,5.59,0,0,0,7.52,2.81,176.31,176.31,0,0,0,15.95-8.63A5.59,5.59,0,0,0,301,348.09Z"/><path class="cls-3" d="M274.74,325.68,276,325l3.3,6.1.72-1,.7,1.29-.77,1.2-1.12.61Z"/><path class="cls-3" d="M272.72,335.25,271,327.71l1.33-.71,1.63,7.28,1.59-.87-.59-1.1,1.23-.67,1.23,2.29-4.18,2.26Z"/><path class="cls-2" d="M323.6,330.48,206,202.7,301,348.1a5.59,5.59,0,0,0,7.87,1.53,176.56,176.56,0,0,0,14.32-11.14A5.58,5.58,0,0,0,323.6,330.48Z"/><path class="cls-3" d="M294.09,312.66l1.1-.86,4.26,5.46.54-1.14.9,1.16-.56,1.31-1,.79Z"/><path class="cls-3" d="M292,314.52a2,2,0,0,1,1.2.18,3.17,3.17,0,0,1,1.08.92h0a4.37,4.37,0,0,1,.52.85,6.78,6.78,0,0,1,.38,1c0,.06,0,.13,0,.19a1.16,1.16,0,0,0,0,.18l.83,4-1.22.95-.94-4.65.28.05a1,1,0,0,1-.07.6,1.46,1.46,0,0,1-.42.52,2.17,2.17,0,0,1-1.11.48,1.88,1.88,0,0,1-1.12-.23,3.43,3.43,0,0,1-1-.93h0a3.28,3.28,0,0,1-.63-1.29,2,2,0,0,1,.11-1.22,2.65,2.65,0,0,1,.85-1A2.56,2.56,0,0,1,292,314.52Zm-.81,2.34a1.22,1.22,0,0,0,.31.84h0a1.45,1.45,0,0,0,.81.59,1,1,0,0,0,.83-.22.9.9,0,0,0,.38-.72,1.64,1.64,0,0,0-.39-.92h0a1.22,1.22,0,0,0-.74-.5,1,1,0,0,0-.78.23A1,1,0,0,0,291.23,316.86Z"/><path class="cls-6" d="M343,309.38,206,202.7,323.59,330.49a5.59,5.59,0,0,0,8,.22,175.89,175.89,0,0,0,12.29-13.35A5.59,5.59,0,0,0,343,309.38Z"/><path class="cls-3" d="M311.16,296.51l.95-1,5.1,4.69.34-1.21,1.08,1-.33,1.38-.87.94Z"/><path class="cls-3" d="M309.23,298.89a2.17,2.17,0,0,1,1.16-.07,3,3,0,0,1,1.2.55h0l-1,1h0a1.13,1.13,0,0,0-.76-.26,1,1,0,0,0-.68.36.94.94,0,0,0-.29.78,1.45,1.45,0,0,0,.51.84l.52.48a1.48,1.48,0,0,0,.86.44.9.9,0,0,0,.74-.32,1,1,0,0,0,.27-.56,1.19,1.19,0,0,0-.07-.64l.87-.95,3.45,3.18-3,3.28-1-.91,2.07-2.25-1.26-1.16a1.26,1.26,0,0,1-.13.55,1.72,1.72,0,0,1-.33.51,2.27,2.27,0,0,1-1,.67,2,2,0,0,1-1.17,0,3.59,3.59,0,0,1-1.22-.77l-.52-.48a3.13,3.13,0,0,1-.84-1.17,2,2,0,0,1-.09-1.23,2.68,2.68,0,0,1,.67-1.18A2.61,2.61,0,0,1,309.23,298.89Z"/><path class="cls-2" d="M358.72,285.37,206,202.7,343,309.39a5.59,5.59,0,0,0,8-1.1,178.75,178.75,0,0,0,9.93-15.19A5.61,5.61,0,0,0,358.72,285.37Z"/><path class="cls-3" d="M325.24,277.75l.76-1.18,5.8,3.79.14-1.25,1.23.8-.1,1.42-.7,1.08Z"/><path class="cls-3" d="M326.56,284.88,325.8,286l-4.2-2.74.76-1.16Zm-.11-4.31,3.48,5.55-.83,1.28-3.46-5.46-2.19,3.35-1.11-.72,3.06-4.69Z"/><path class="cls-6" d="M370.25,259.11,206,202.7l152.7,82.69a5.58,5.58,0,0,0,7.65-2.4,175.64,175.64,0,0,0,7.29-16.61A5.6,5.6,0,0,0,370.25,259.11Z"/><path class="cls-3" d="M335.85,257.37l.56-1.28,6.35,2.78-.07-1.25,1.35.59.13,1.41-.52,1.18Z"/><path class="cls-3" d="M334.9,260a2.17,2.17,0,0,1,1.09-.52,2.69,2.69,0,0,1,1.3.12l-.58,1.32a1.22,1.22,0,0,0-.56,0,1.08,1.08,0,0,0-.44.22,1.29,1.29,0,0,0-.31.46A1,1,0,0,0,336,263l.21.09a1.35,1.35,0,0,0,.9.12.89.89,0,0,0,.57-.55l.27-.6,1.22.53-.26.61a.77.77,0,0,0,0,.68,1.14,1.14,0,0,0,.6.5l.18.08a1,1,0,0,0,.74.06,1,1,0,0,0,.41-1.45,1.67,1.67,0,0,0-.42-.42l.57-1.3a2.89,2.89,0,0,1,1,.9,2.13,2.13,0,0,1,.39,1.12,2.51,2.51,0,0,1-.23,1.21,2.33,2.33,0,0,1-1.22,1.34,2.14,2.14,0,0,1-1.74-.09l-.19-.08a1.9,1.9,0,0,1-.85-.73,1.94,1.94,0,0,1-.25-1.11,1.57,1.57,0,0,1-1,.67,2.32,2.32,0,0,1-1.36-.2l-.18-.08a2.54,2.54,0,0,1-1-.78,1.94,1.94,0,0,1-.4-1.1,3.08,3.08,0,0,1,.29-1.33A3,3,0,0,1,334.9,260Z"/><path class="cls-2" d="M377.29,231.31,206,202.7l164.22,56.43a5.6,5.6,0,0,0,7.16-3.63,176.58,176.58,0,0,0,4.46-17.58A5.6,5.6,0,0,0,377.29,231.31Z"/><path class="cls-3" d="M343.07,235.29l.34-1.35,6.71,1.7-.27-1.23,1.42.36.37,1.37-.32,1.25Z"/><path class="cls-3" d="M343.85,237.23l3.06,3.82a2.6,2.6,0,0,0,.51.49,1.48,1.48,0,0,0,.55.27h0a.86.86,0,0,0,.71-.09,1.09,1.09,0,0,0,.41-.66,1,1,0,0,0-.1-.8,1.24,1.24,0,0,0-.69-.53h0l.36-1.4h0a3.07,3.07,0,0,1,1.17.72,2.27,2.27,0,0,1,.6,1.05,2.62,2.62,0,0,1,0,1.27,3.06,3.06,0,0,1-.58,1.23,1.92,1.92,0,0,1-.94.63,2.38,2.38,0,0,1-1.24,0h0a2.92,2.92,0,0,1-1-.44,4.34,4.34,0,0,1-.83-.77l-2.34-3-.76,3-1.3-.33,1.21-4.77Z"/><path class="cls-6" d="M379.66,202.73,206,202.7l171.27,28.63a5.59,5.59,0,0,0,6.46-4.76,178.89,178.89,0,0,0,1.51-18.08A5.6,5.6,0,0,0,379.66,202.73Z"/><path class="cls-3" d="M346.47,213.46l.12-1.39,6.9.57-.47-1.17,1.47.13.58,1.29-.11,1.28Z"/><path class="cls-3" d="M346.14,217.44l.12-1.4,6.9.58-.47-1.17,1.46.12.59,1.3-.11,1.28Z"/><path class="cls-2" d="M377.3,174.15,206,202.7l173.65,0a5.58,5.58,0,0,0,5.59-5.75,179.8,179.8,0,0,0-1.49-18.08A5.6,5.6,0,0,0,377.3,174.15Z"/><path class="cls-3" d="M346.21,188.78l-.12-1.39,6.91-.57-.66-1.08,1.46-.12.8,1.18.1,1.28Z"/><path class="cls-3" d="M347,191.18a2.39,2.39,0,0,1,1.72-.78l3.86-.32a2.4,2.4,0,0,1,1.83.49,2.53,2.53,0,0,1,.79,1.8,2.49,2.49,0,0,1-.48,1.9,2.45,2.45,0,0,1-1.73.78l-3.86.32a2.42,2.42,0,0,1-1.83-.5,3,3,0,0,1-.3-3.69Zm1.25,2.59a1.52,1.52,0,0,0,1,.18l3.45-.28a1.53,1.53,0,0,0,.93-.34,1,1,0,0,0,.26-.85,1,1,0,0,0-.4-.8,1.43,1.43,0,0,0-1-.18l-3.45.28a1.46,1.46,0,0,0-.92.34,1,1,0,0,0-.27.85A1,1,0,0,0,348.21,193.77Z"/><path class="cls-6" d="M370.27,146.35,206,202.7l171.29-28.54a5.6,5.6,0,0,0,4.57-6.59A178.35,178.35,0,0,0,377.43,150,5.59,5.59,0,0,0,370.27,146.35Z"/><path class="cls-3" d="M346.86,167.84l-.17.19a.87.87,0,0,1-.49-.33,2,2,0,0,1-.3-.65,2,2,0,0,1,0-1.15,2.22,2.22,0,0,1,.67-.93,3.09,3.09,0,0,1,1.21-.57h0a3.25,3.25,0,0,1,1.44-.06,2,2,0,0,1,1.07.59,2.63,2.63,0,0,1,.62,1.2,2.69,2.69,0,0,1,0,1.35,2.1,2.1,0,0,1-.67,1,3.2,3.2,0,0,1-1.31.62h0a3.48,3.48,0,0,1-1,.12,6.07,6.07,0,0,1-1.1-.08l-.17,0-.17,0-3.95-.72-.36-1.45Zm.88-.13a1.4,1.4,0,0,0,1,0h0a1.4,1.4,0,0,0,.8-.48,1,1,0,0,0,.12-.82,1,1,0,0,0-.5-.67,1.37,1.37,0,0,0-.93,0h0a1.35,1.35,0,0,0-.82.49.93.93,0,0,0-.13.82A.94.94,0,0,0,347.74,167.71Z"/><path class="cls-2" d="M358.75,120.08,206,202.7l164.25-56.34a5.6,5.6,0,0,0,3.43-7.26,179.67,179.67,0,0,0-7.29-16.61A5.6,5.6,0,0,0,358.75,120.08Z"/><path class="cls-3" d="M334.73,144.85a2.16,2.16,0,0,1,.39-1.18,2.29,2.29,0,0,1,1-.8l.13-.06a2.28,2.28,0,0,1,1.24-.17,2.16,2.16,0,0,1,1.14.48,1.87,1.87,0,0,1,.34-1,1.78,1.78,0,0,1,.78-.66l.19-.08a2.14,2.14,0,0,1,1.2-.19,2.11,2.11,0,0,1,1.07.47,2.93,2.93,0,0,1,.77,1.08,2.83,2.83,0,0,1,.27,1.29,2,2,0,0,1-.38,1.11,2.12,2.12,0,0,1-.95.75l-.19.09a1.86,1.86,0,0,1-1,.13,2.1,2.1,0,0,1-1-.43,2.31,2.31,0,0,1-.42,1.17,2.24,2.24,0,0,1-1,.79l-.12.06a2.43,2.43,0,0,1-1.28.2,2.21,2.21,0,0,1-1.13-.52,3,3,0,0,1-.82-1.15A3.16,3.16,0,0,1,334.73,144.85Zm1.92,1.39a1,1,0,0,0,.56.23,1.25,1.25,0,0,0,.62-.1l.08,0a1.08,1.08,0,0,0,.48-.38,1,1,0,0,0,.19-.56,1.34,1.34,0,0,0-.13-.66,1.4,1.4,0,0,0-.39-.54,1.08,1.08,0,0,0-.55-.24,1.21,1.21,0,0,0-.61.1l-.08,0a1.21,1.21,0,0,0-.5.38,1.06,1.06,0,0,0-.2.57,1.53,1.53,0,0,0,.53,1.2Zm3.39-1.59a.93.93,0,0,0,.51.18,1.15,1.15,0,0,0,.59-.11l.07,0a1.11,1.11,0,0,0,.46-.35.84.84,0,0,0,.18-.49,1.13,1.13,0,0,0-.1-.56,1.26,1.26,0,0,0-.34-.46.92.92,0,0,0-.49-.2,1.3,1.3,0,0,0-.57.1l-.08,0a1.36,1.36,0,0,0-.48.35,1,1,0,0,0-.2.5,1.05,1.05,0,0,0,.1.57A1.09,1.09,0,0,0,340,144.65Z"/><path class="cls-6" d="M343.07,96.07,206,202.7l152.74-82.61a5.58,5.58,0,0,0,2.18-7.72A178.71,178.71,0,0,0,351,97.18,5.59,5.59,0,0,0,343.07,96.07Z"/><path class="cls-3" d="M331.48,123.64,324.11,126l-.82-1.26,7.12-2.22-1-1.53-1.05.69-.76-1.17,2.17-1.42,2.6,4Z"/><path class="cls-2" d="M323.65,75,206,202.7,343.08,96.08a5.58,5.58,0,0,0,.88-8,176.77,176.77,0,0,0-12.28-13.35A5.6,5.6,0,0,0,323.65,75Z"/><path class="cls-3" d="M309,106.22a2,2,0,0,1,.08-1.2,3,3,0,0,1,.83-1.16h0a4.7,4.7,0,0,1,.81-.59,6.81,6.81,0,0,1,1-.46l.17-.06.18,0,3.91-1.17,1.05,1.14L312.44,104l0-.29a1,1,0,0,1,.6,0,1.33,1.33,0,0,1,.56.38,2.31,2.31,0,0,1,.57,1.06,2,2,0,0,1-.14,1.13,3.39,3.39,0,0,1-.84,1.12h0a3.36,3.36,0,0,1-1.23.74,2,2,0,0,1-1.22,0,2.64,2.64,0,0,1-1.12-.76A2.48,2.48,0,0,1,309,106.22Zm2.39.62a1.21,1.21,0,0,0,.81-.38h0a1.52,1.52,0,0,0,.52-.85,1,1,0,0,0-.29-.81.89.89,0,0,0-.75-.32,1.6,1.6,0,0,0-.89.46h0a1.3,1.3,0,0,0-.45.78,1,1,0,0,0,.3.76A1,1,0,0,0,311.37,106.84Z"/><path class="cls-6" d="M301,57.35,206,202.7,323.66,75a5.6,5.6,0,0,0-.44-8A179.85,179.85,0,0,0,308.9,55.82,5.59,5.59,0,0,0,301,57.35Z"/><path class="cls-3" d="M291.8,90.67a2.14,2.14,0,0,1-.18-1.15,3.08,3.08,0,0,1,.46-1.25h0l1.11.86h0a1.11,1.11,0,0,0-.19.78,1.07,1.07,0,0,0,1.21.86,1.44,1.44,0,0,0,.79-.56l.44-.57a1.37,1.37,0,0,0,.36-.89.9.9,0,0,0-.37-.71,1.17,1.17,0,0,0-.58-.23,1.19,1.19,0,0,0-.63.14l-1-.8,2.89-3.7,3.52,2.74-.83,1.06-2.41-1.88-1.05,1.35a1.25,1.25,0,0,1,.56.08,1.92,1.92,0,0,1,.53.28,2.32,2.32,0,0,1,.76,1,2,2,0,0,1,0,1.17,3.69,3.69,0,0,1-.66,1.27l-.44.57A3.24,3.24,0,0,1,295,92a2,2,0,0,1-1.21.19,2.62,2.62,0,0,1-1.24-.57A2.54,2.54,0,0,1,291.8,90.67Z"/><path class="cls-2" d="M275.8,43.69,206,202.7,301,57.35a5.59,5.59,0,0,0-1.75-7.83,177.89,177.89,0,0,0-16-8.63A5.59,5.59,0,0,0,275.8,43.69Z"/><path class="cls-3" d="M271.9,75.31l5.24-3.93,1.34.73L273.33,76l3.52,1.91-.63,1.16-4.92-2.66Zm4.29-.46,1.22.66L275,79.92l-1.22-.66Z"/><path class="cls-6" d="M248.68,34.37,206,202.7l69.79-159a5.59,5.59,0,0,0-3-7.44,177.49,177.49,0,0,0-17.15-5.89A5.6,5.6,0,0,0,248.68,34.37Z"/><path class="cls-3" d="M250.58,68.93a2.33,2.33,0,0,1-.61-1.05,2.61,2.61,0,0,1,0-1.3l1.36.47a1.13,1.13,0,0,0,0,.55.84.84,0,0,0,.26.42,1.24,1.24,0,0,0,.48.28,1.11,1.11,0,0,0,.86,0,1.13,1.13,0,0,0,.54-.67l.07-.22a1.29,1.29,0,0,0,0-.9A.88.88,0,0,0,253,66l-.62-.22.43-1.26.63.22a.77.77,0,0,0,.67,0,1.13,1.13,0,0,0,.45-.64l.07-.19a.94.94,0,0,0,0-.74.89.89,0,0,0-.55-.44.93.93,0,0,0-.49,0,.92.92,0,0,0-.44.2,1.48,1.48,0,0,0-.38.46l-1.35-.47a3.07,3.07,0,0,1,.82-1.06,2.19,2.19,0,0,1,1.08-.48,2.58,2.58,0,0,1,1.22.12A2.44,2.44,0,0,1,256,62.5a2.17,2.17,0,0,1,.05,1.74l-.07.19a1.8,1.8,0,0,1-.65.91,1.91,1.91,0,0,1-1.09.34,1.59,1.59,0,0,1,.75,1,2.31,2.31,0,0,1-.09,1.36l-.07.19a2.65,2.65,0,0,1-.68,1.11,1.88,1.88,0,0,1-1.06.48,2.89,2.89,0,0,1-1.36-.17A3.15,3.15,0,0,1,250.58,68.93Z"/><path class="cls-7" d="M285.4,168.23a86.69,86.69,0,1,1-114.21-44.55A86.69,86.69,0,0,1,285.4,168.23"/><path class="cls-8" d="M266.71,176.44a66.27,66.27,0,1,1-87.32-34.06,66.27,66.27,0,0,1,87.32,34.06"/><path class="cls-1" d="M261,179a60,60,0,1,1-79-30.84A60,60,0,0,1,261,179"/><path class="cls-8" d="M228.18,193.34a24.2,24.2,0,1,1-31.89-12.44,24.21,24.21,0,0,1,31.89,12.44"/><circle class="cls-9" cx="205.38" cy="203.04" r="134.99"/><circle class="cls-10" cx="205.38" cy="203.04" r="173.64"/><circle class="cls-10" cx="206.02" cy="203.07" r="88.73"/><circle class="cls-10" cx="206.02" cy="203.07" r="76.88"/><polygon class="cls-8" points="205.31 144.17 203.9 187.4 205.31 187.4 206.72 187.4 205.31 144.17"/><polygon class="cls-8" points="205.31 261.96 203.9 218.73 205.31 218.73 206.72 218.73 205.31 261.96"/><polygon class="cls-8" points="264.21 203.07 220.98 201.66 220.98 203.07 220.98 204.48 264.21 203.07"/><polygon class="cls-8" points="146.41 203.07 189.65 201.66 189.65 203.07 189.65 204.48 146.41 203.07"/><polygon class="cls-8" points="246.96 161.42 215.39 190.99 216.39 191.99 217.38 192.99 246.96 161.42"/><polygon class="cls-8" points="163.66 244.71 193.24 213.14 194.24 214.14 195.23 215.14 163.66 244.71"/><circle class="cls-11" cx="205.38" cy="203.04" r="179.69"/><polygon class="cls-8" points="246.96 244.71 217.38 213.14 216.39 214.14 215.39 215.14 246.96 244.71"/><polygon class="cls-8" points="163.66 161.42 195.23 190.99 194.24 191.99 193.24 192.99 163.66 161.42"/><path class="cls-7" d="M223.86,195.24a19.49,19.49,0,1,1-25.67-10,19.48,19.48,0,0,1,25.67,10"/><circle class="cls-12" cx="206.02" cy="203.07" r="15.66"/><circle class="cls-13" cx="206.02" cy="203.07" r="71.06"/><circle class="cls-13" cx="206.02" cy="203.07" r="83"/><circle class="cls-13" cx="205.38" cy="203.04" r="179.69"/><circle class="cls-12" cx="206.02" cy="203.07" r="9.37"/></g></g></svg>